PathFileType	4	(X/Y/Z)	T1_P2_NoVision_Movement_0_0-734.trc
DataRate	CameraRate	NumFrames	NumMarkers	Units	OrigDataRate	OrigDataStartFrame	OrigNumFrames
60	60	5	27	m	60	367	734
Frame#	Time	RHip			RKnee			RAnkle			RBigToe			RSmallToe			RHeel			LHip			LKnee			LAnkle			LBigToe			LSmallToe			LHeel			Neck			Head			Nose			RShoulder			RElbow			RWrist			RThumb			RIndex			RPinky			LShoulder			LElbow			LWrist			LThumb			LIndex			LPinky		
		X1	Y1	Z1	X2	Y2	Z2	X3	Y3	Z3	X4	Y4	Z4	X5	Y5	Z5	X6	Y6	Z6	X7	Y7	Z7	X8	Y8	Z8	X9	Y9	Z9	X10	Y10	Z10	X11	Y11	Z11	X12	Y12	Z12	X13	Y13	Z13	X14	Y14	Z14	X15	Y15	Z15	X16	Y16	Z16	X17	Y17	Z17	X18	Y18	Z18	X19	Y19	Z19	X20	Y20	Z20	X21	Y21	Z21	X22	Y22	Z22	X23	Y23	Z23	X24	Y24	Z24	X25	Y25	Z25	X26	Y26	Z26	X27	Y27	Z27
368	6.133333333333334	447.7115826891628	3656.3029101274824	547.5771727112344	859.9655776014476	3721.8279733927398	579.7484956869456	1238.437528504233	3713.3115526028982	618.2514752019886	1325.3898710888075	3632.101132769299	614.1741906878578	1301.15014199261	3642.0636675372375	549.7153440729812	1265.2415852571407	3721.0580399146315	634.2430606509888	457.2599643870907	3534.848214221579	744.212345318435	861.0509173017202	3565.469861146458	754.5246756799459	1221.7736193083879	3598.6054271151334	739.9885836532654	1317.3145946413817	3536.4268205337166	683.5200465144937	1279.654517271362	3475.0527050257288	721.2458230518421	1265.7295140442534	3619.441295483206	730.2572482947753	-117.29051927012574	3536.9169538529636	641.5205616278128	-368.7626552054045	3499.4127386378445	626.5931027371392	-230.15000878005785	3451.275087421811	600.9329964371067	-39.42608546323713	3696.008545208448	542.8757136790109	164.01501779257512	3742.27131139706	437.6055279025918	197.07551310104333	3519.797061661959	431.0113478182949	180.01087457826853	3413.6491256276563	487.30872364065027	193.27685399323704	3405.8807189657423	488.1447047411623	246.70179790912917	3438.663071821824	484.0386054322743	-31.778993923951546	3557.721555842187	831.426366068115	216.538824529152	3476.215866117866	859.1737966160607	463.14054550389926	3437.148105108393	832.0322121803091	574.8551701918273	3455.9397840210418	809.5051672190765	594.1683308628599	3441.9023226192717	829.8250905829046	606.6060913343019	3475.706558551542	885.7372647661308
369	6.15	447.8556486452026	3654.7178628960573	552.1773515978135	869.8396913456559	3720.0852788375328	577.8661354765621	1235.362251416031	3705.406130476331	613.7001666984803	1318.299383594246	3627.1231696555756	612.9847607848521	1283.7182030546198	3612.7148469328354	530.8770318884299	1267.835465724653	3715.998649903399	631.5752426104295	452.42067379377227	3533.1886877389998	743.2440076498613	856.0720398194004	3545.0742981509698	748.4470230618922	1235.6586852718576	3618.130559626466	754.6138791075127	1317.1395681659992	3536.0312529443886	683.4483407585691	1279.6432964890614	3475.0993516779936	721.2596106810627	1266.08596160513	3619.9643826798515	730.38431019412	-117.28471986668666	3536.83993514301	641.5370886979015	-368.8372939872892	3499.4930716976974	626.6438261629527	-230.2198926592233	3451.285415729286	600.9564659780818	-44.49770439280682	3694.495455194058	542.4017104727662	169.38097930273716	3745.824954272188	444.4913154942534	198.94297839808334	3535.1177923480227	443.47912774768025	176.75028999204926	3419.1527491337883	485.90252667366093	193.1013354153004	3406.749711540809	488.2071830345627	246.6521661531124	3435.665243763624	488.1806379141232	-31.746159244267652	3557.657488106203	831.4987489180393	220.8323485382709	3471.7268761065206	856.4974428463157	463.18675671456873	3436.9797352050446	831.876061979724	574.9995634903265	3455.6845673850758	809.2927029786505	598.7395287838006	3442.7033577677835	830.6294070628793	606.7351008595076	3475.4163305482707	885.5714144107017
370	6.166666666666667	443.31053625464006	3653.1454022811836	551.2686856264293	869.9640365895831	3720.2378222059524	577.9282124661952	1232.5040705937288	3711.0063385104663	616.5825950505607	1318.302903618878	3627.1276215554008	612.9980160569827	1297.0539410325523	3631.302834283164	545.4704873069767	1267.7120271915603	3716.031148519644	631.648662405175	452.4501614194606	3533.0466882697683	743.2447625339296	862.2069116060718	3549.3681137962617	749.957536875169	1235.581920078105	3618.194383606269	754.783334210089	1324.7219569525619	3556.2214692335524	689.1174445986848	1279.6993484859238	3475.2602518717017	721.3622529611827	1265.6926032481351	3619.7454307843223	730.4188583273834	-117.32087178535778	3536.8193765738083	641.5518089383542	-368.88647241740034	3499.402587145119	626.6171805548255	-230.29543618492664	3465.513189412213	613.2419820656474	-39.45941655891735	3695.9279320381856	542.9448479835422	164.4207879712319	3741.612989559237	442.95239996076674	196.9868237696033	3519.724268488618	430.8915645033527	181.63131203760398	3421.655432226239	486.91441107635546	193.12879221189363	3407.4516598383	488.3908819228841	244.27798020650388	3450.7625194415523	491.56221670142725	-26.875800544894023	3561.292916181134	833.2877118888266	220.86985534587077	3471.483582134392	856.3754761197512	463.20177226317236	3436.971364454576	831.9249993489467	574.8292618855999	3455.7063782419073	809.4197292248687	598.7358746312631	3442.691389018592	830.5780141822933	606.6772061499444	3475.6892369716966	885.6955997715377
371	6.183333333333334	451.9081530092829	3651.311894788838	545.0730731429263	876.4370636346138	3724.8758492835145	579.4337002943056	1241.3335846316768	3707.3259105847633	615.4142259485143	1327.4416485739414	3625.9926458128816	610.9715393325207	1303.8691236136785	3635.840284472164	546.7171639240487	1267.8052273878386	3715.9232170131145	631.5321131596537	461.1217437106439	3529.9504720919354	741.7592320178851	865.6637380571242	3544.006496540778	747.0688030277396	1221.8191433237494	3598.8165738930606	740.0661626462592	1324.8901897317064	3556.350926696593	689.0999788722381	1279.8372473024	3475.486996605971	721.3954633690952	1263.3262837756058	3624.588712115826	732.9958762945531	-117.29905939281268	3536.804918179587	641.5775283489517	-373.46213298240065	3503.206919069059	628.6117600559485	-230.3615397775827	3465.5524150333285	613.2544934961444	-39.33206615967191	3695.9878299579163	542.8469426161686	166.0770345740503	3764.3073028443487	448.1791184856266	198.93837944480998	3535.3424404389993	443.5441420443268	181.89508215855773	3421.159905446226	486.8742104188241	197.47757489752664	3408.5900136776067	488.9932088093404	253.8813377909147	3456.085715483289	493.69199460062873	-26.78081265956526	3561.324468273453	833.404904121469	225.51277060118244	3472.78631823859	857.2390053663776	463.23182943486694	3436.829600658688	831.8511781112242	575.0757125166078	3455.57057012102	809.2264234285989	601.8891519139447	3439.075623103164	828.2668569045029	606.7840969990662	3475.3006642154182	885.3245773458808
372	6.2	451.90968940943725	3651.1468305187536	545.0392361006484	876.4678822099555	3725.203108153909	579.5104054359105	1241.5739313468189	3706.9846394261263	615.4230932675155	1321.396320143807	3623.1458709144663	610.5491123211572	1304.2481726704711	3636.13632968579	546.8560804460802	1273.7638754934146	3717.0992778448344	632.9979045465433	461.0969967142007	3529.803547033225	741.6832717627407	871.2957056695769	3546.045722342361	748.7880736878243	1231.268245587434	3598.030590956329	737.9764216793254	1318.374827816264	3540.2896262118948	680.1608127272032	1279.9414908543276	3475.2626422541157	721.3504331979644	1271.643686508687	3621.4924159518664	731.7217602819195	-117.18923683419818	3536.8398605986627	641.6428031635892	-373.4618018352342	3503.288707446359	628.6684633640292	-230.31922993418746	3465.6306705336247	613.3440933436294	-39.390707925139736	3696.0334933571153	543.0200908038944	164.45279831695024	3742.5760845202594	437.7490022351785	198.8836252214834	3535.2179647742787	443.45429479034345	181.82080641872165	3421.3407252030656	486.83034804764407	193.12339745312406	3407.8345085713563	488.3940380128232	248.80572584014493	3452.498262561065	492.3883322312193	-22.179231656378015	3563.1246119041725	834.2551728875538	220.4175385384151	3468.8832660301273	855.515017139508	463.2839238401784	3436.8090652683695	831.9204581888371	577.9418395223123	3450.662348911643	810.7567974589015	602.0890478098565	3438.5868767385505	828.1698190967527	607.1181395873318	3462.394841396863	872.6885210552987
